<?xml version="1.0" encoding="UTF-8"?>
<svg id="Layer_1" xmlns="http://www.w3.org/2000/svg" version="1.1" viewBox="0 0 75 75">
  <!-- Generator: Adobe Illustrator 29.5.1, SVG Export Plug-In . SVG Version: 2.1.0 Build 141)  -->
  <defs>
    <style>
      .st0 {
        stroke-miterlimit: 11.34;
      }

      .st0, .st1 {
        fill: none;
        stroke: #000;
        stroke-width: 2px;
      }

      .st1 {
        stroke-linejoin: round;
      }
    </style>
  </defs>
  <g id="g18431">
    <g id="g6591-4-6-6">
      <path id="path6541-7-3-5" class="st1" d="M27.76,19.86c3.21,0,5.81,2.1,5.81,4.69h0c0,2.59-2.6,4.69-5.81,4.69"/>
      <path id="path6566-7-0-4" class="st0" d="M20.22,19.85h7.56"/>
      <path id="path6568-91-4-9" class="st0" d="M20.22,57.64h7.56"/>
      <path id="path6541-8-1-4-3" class="st1" d="M27.8,29.21c3.21,0,5.81,2.1,5.81,4.69s-2.6,4.69-5.81,4.69"/>
      <path id="path6541-9-6-9-8" class="st1" d="M27.81,38.63c3.21,0,5.81,2.1,5.81,4.69,0,2.59-2.6,4.69-5.81,4.69h0"/>
      <path id="path6541-2-6-2-9" class="st1" d="M27.77,48.26c3.21,0,5.81,2.1,5.81,4.69h0c0,2.59-2.6,4.69-5.81,4.69"/>
    </g>
    <g id="g6591-4-6-6-1">
      <path id="path6541-7-3-5-8" class="st1" d="M50.46,19.86c-3.21,0-5.81,2.1-5.81,4.69h0c0,2.59,2.6,4.69,5.81,4.69"/>
      <path id="path6566-7-0-4-3" class="st0" d="M58,19.85h-7.56"/>
      <path id="path6568-91-4-9-9" class="st0" d="M58,57.64h-7.56"/>
      <path id="path6541-8-1-4-3-5" class="st1" d="M50.42,29.21c-3.21,0-5.81,2.1-5.81,4.69s2.6,4.69,5.81,4.69"/>
      <path id="path6541-9-6-9-8-7" class="st1" d="M50.41,38.63c-3.21,0-5.81,2.1-5.81,4.69,0,2.59,2.6,4.69,5.81,4.69h0"/>
      <path id="path6541-2-6-2-9-0" class="st1" d="M50.44,48.26c-3.21,0-5.81,2.1-5.81,4.69h0c0,2.59,2.6,4.69,5.81,4.69"/>
    </g>
    <path id="path18433" class="st0" d="M36.84,22.88v34.76"/>
    <path id="path18435" class="st0" d="M41.38,57.64V22.88"/>
  </g>
</svg>